 <svg  version="1.0" xmlns="http://www.w3.org/2000/svg"  width="300.000000pt" height="117.000000pt" viewBox="0 0 300.000000 117.000000"  preserveAspectRatio="xMidYMid meet">  <g transform="translate(0.000000,117.000000) scale(0.100000,-0.100000)" fill="#2196f3" stroke="none"> <path d="M1217 1013 c-4 -3 -7 -41 -7 -82 l0 -76 -64 -13 c-95 -18 -151 -46 -210 -105 -85 -85 -116 -204 -86 -334 12 -51 67 -139 106 -171 117 -93 285 -107 414 -34 169 96 222 328 112 492 -46 68 -148 143 -163 120 -13 -20 -7 -214 8 -231 6 -8 15 -37 18 -64 8 -62 -23 -130 -72 -158 -104 -59 -243 15 -243 130 0 95 62 163 150 163 76 0 79 6 82 160 l3 135 48 3 c27 2 55 -2 62 -8 18 -15 29 4 15 29 -19 36 -52 51 -111 51 -30 0 -59 -3 -62 -7z"/> <path d="M1690 915 l0 -95 -54 0 -54 0 -7 -64 c-9 -89 1 -106 64 -106 l49 0 4 -172 c4 -151 7 -178 25 -213 11 -22 30 -48 40 -57 28 -25 129 -58 179 -58 43 0 169 34 178 49 3 4 -5 39 -17 77 l-22 69 -73 -4 c-110 -5 -112 -2 -112 170 0 137 0 139 23 144 13 4 27 5 33 4 5 -1 39 -1 77 0 l67 1 0 80 0 79 -97 3 -98 3 -3 93 -3 92 -99 0 -100 0 0 -95z"/> <path d="M2411 839 c-170 -33 -272 -183 -258 -380 11 -168 123 -289 283 -305 75 -8 151 14 193 57 16 16 32 29 35 29 3 0 6 -16 6 -35 l0 -36 98 3 97 3 3 323 2 322 -99 0 -100 0 -3 -32 -3 -31 -31 26 c-57 49 -147 71 -223 56z m185 -199 c10 -7 31 -28 47 -48 47 -61 33 -173 -27 -224 -81 -67 -220 -33 -260 66 -20 51 -4 132 36 173 18 19 42 39 53 44 26 12 127 5 151 -11z"/> <path d="M427 821 c-20 -10 -48 -28 -62 -41 l-25 -23 0 31 0 32 -100 0 -100 0 0 -325 0 -325 100 0 100 0 0 207 c0 198 1 208 23 240 42 62 138 67 182 8 24 -31 25 -36 27 -241 l3 -209 98 -3 97 -3 0 240 c0 262 -6 296 -59 355 -63 70 -198 97 -284 57z"/> </g> </svg> 